# xmcd
#
# Track frame offsets: 
#        150
#        15209
#        34801
#        48802
#        70531
#        87192
#        110188
#        120994
#        138375
#        151269
#
# Disc length: 2214 seconds
#
# Revision: 0
# Processed by: cddbd v1.5.2PL0 Copyright (c) Steve Scherf et al.
# Submitted via: ExactAudioCopy v0.99pb3
#
DISCID=7008a40a
DTITLE=Fred Jobe Singing Sheriff - Natural High
DYEAR=1900
DGENRE=Country
TTITLE0=Dancing Shoes
TTITLE1=Higher Than I've Been
TTITLE2=Hold on Just a Little While Longer
TTITLE3=Sing Me One More Song
TTITLE4=Natural High
TTITLE5=Oh Lord How We'll Sing
TTITLE6=One More River
TTITLE7=Come Morning
TTITLE8=I couldn't Make It Without Him
TTITLE9=Seeing My Father In Me
EXTD=
EXTT0=
EXTT1=
EXTT2=
EXTT3=
EXTT4=
EXTT5=
EXTT6=
EXTT7=
EXTT8=
EXTT9=
PLAYORDER=
